<svg width="1099" height="192" viewBox="0 0 1099 192" fill="none" xmlns="http://www.w3.org/2000/svg">
<g filter="url(#filter0_d_114_4388)">
<path d="M304.432 51.144V68.68H267.824V87.624H295.216V104.648H267.824V141H245.936V51.144H304.432ZM348.448 142.024C341.451 142.024 335.136 140.531 329.504 137.544C323.957 134.557 319.563 130.291 316.32 124.744C313.163 119.197 311.584 112.712 311.584 105.288C311.584 97.9493 313.205 91.5067 316.448 85.96C319.691 80.328 324.128 76.0187 329.76 73.032C335.392 70.0453 341.707 68.552 348.704 68.552C355.701 68.552 362.016 70.0453 367.648 73.032C373.28 76.0187 377.717 80.328 380.96 85.96C384.203 91.5067 385.824 97.9493 385.824 105.288C385.824 112.627 384.16 119.112 380.832 124.744C377.589 130.291 373.109 134.557 367.392 137.544C361.76 140.531 355.445 142.024 348.448 142.024ZM348.448 123.08C352.629 123.08 356.171 121.544 359.072 118.472C362.059 115.4 363.552 111.005 363.552 105.288C363.552 99.5707 362.101 95.176 359.2 92.104C356.384 89.032 352.885 87.496 348.704 87.496C344.437 87.496 340.896 89.032 338.08 92.104C335.264 95.0907 333.856 99.4853 333.856 105.288C333.856 111.005 335.221 115.4 337.952 118.472C340.768 121.544 344.267 123.08 348.448 123.08ZM429.948 142.024C422.951 142.024 416.636 140.531 411.004 137.544C405.457 134.557 401.063 130.291 397.82 124.744C394.663 119.197 393.084 112.712 393.084 105.288C393.084 97.9493 394.705 91.5067 397.948 85.96C401.191 80.328 405.628 76.0187 411.26 73.032C416.892 70.0453 423.207 68.552 430.204 68.552C437.201 68.552 443.516 70.0453 449.148 73.032C454.78 76.0187 459.217 80.328 462.46 85.96C465.703 91.5067 467.324 97.9493 467.324 105.288C467.324 112.627 465.66 119.112 462.332 124.744C459.089 130.291 454.609 134.557 448.892 137.544C443.26 140.531 436.945 142.024 429.948 142.024ZM429.948 123.08C434.129 123.08 437.671 121.544 440.572 118.472C443.559 115.4 445.052 111.005 445.052 105.288C445.052 99.5707 443.601 95.176 440.7 92.104C437.884 89.032 434.385 87.496 430.204 87.496C425.937 87.496 422.396 89.032 419.58 92.104C416.764 95.0907 415.356 99.4853 415.356 105.288C415.356 111.005 416.721 115.4 419.452 118.472C422.268 121.544 425.767 123.08 429.948 123.08ZM474.584 105.16C474.584 97.8213 475.949 91.3787 478.68 85.832C481.496 80.2853 485.293 76.0187 490.072 73.032C494.851 70.0453 500.184 68.552 506.072 68.552C510.765 68.552 515.032 69.5333 518.872 71.496C522.797 73.4587 525.869 76.104 528.088 79.432V46.28H549.976V141H528.088V130.76C526.04 134.173 523.096 136.904 519.256 138.952C515.501 141 511.107 142.024 506.072 142.024C500.184 142.024 494.851 140.531 490.072 137.544C485.293 134.472 481.496 130.163 478.68 124.616C475.949 118.984 474.584 112.499 474.584 105.16ZM528.088 105.288C528.088 99.8267 526.552 95.5173 523.48 92.36C520.493 89.2027 516.824 87.624 512.472 87.624C508.12 87.624 504.408 89.2027 501.336 92.36C498.349 95.432 496.856 99.6987 496.856 105.16C496.856 110.621 498.349 114.973 501.336 118.216C504.408 121.373 508.12 122.952 512.472 122.952C516.824 122.952 520.493 121.373 523.48 118.216C526.552 115.059 528.088 110.749 528.088 105.288ZM587.699 68.68V86.856H617.011V103.752H587.699V123.464H620.851V141H565.811V51.144H620.851V68.68H587.699ZM677.301 141L663.605 121.16L652.085 141H628.405L651.957 104.52L627.765 69.576H652.341L666.037 89.288L677.557 69.576H701.237L677.301 105.544L701.877 141H677.301ZM732.199 79.688C734.332 76.36 737.276 73.672 741.031 71.624C744.786 69.576 749.18 68.552 754.215 68.552C760.103 68.552 765.436 70.0453 770.215 73.032C774.994 76.0187 778.748 80.2853 781.479 85.832C784.295 91.3787 785.703 97.8213 785.703 105.16C785.703 112.499 784.295 118.984 781.479 124.616C778.748 130.163 774.994 134.472 770.215 137.544C765.436 140.531 760.103 142.024 754.215 142.024C749.266 142.024 744.871 141 741.031 138.952C737.276 136.904 734.332 134.259 732.199 131.016V175.048H710.311V69.576H732.199V79.688ZM763.431 105.16C763.431 99.6987 761.895 95.432 758.823 92.36C755.836 89.2027 752.124 87.624 747.687 87.624C743.335 87.624 739.623 89.2027 736.551 92.36C733.564 95.5173 732.071 99.8267 732.071 105.288C732.071 110.749 733.564 115.059 736.551 118.216C739.623 121.373 743.335 122.952 747.687 122.952C752.039 122.952 755.751 121.373 758.823 118.216C761.895 114.973 763.431 110.621 763.431 105.16ZM819.074 46.28V141H797.186V46.28H819.074ZM867.448 142.024C860.451 142.024 854.136 140.531 848.504 137.544C842.957 134.557 838.563 130.291 835.32 124.744C832.163 119.197 830.584 112.712 830.584 105.288C830.584 97.9493 832.205 91.5067 835.448 85.96C838.691 80.328 843.128 76.0187 848.76 73.032C854.392 70.0453 860.707 68.552 867.704 68.552C874.701 68.552 881.016 70.0453 886.648 73.032C892.28 76.0187 896.717 80.328 899.96 85.96C903.203 91.5067 904.824 97.9493 904.824 105.288C904.824 112.627 903.16 119.112 899.832 124.744C896.589 130.291 892.109 134.557 886.392 137.544C880.76 140.531 874.445 142.024 867.448 142.024ZM867.448 123.08C871.629 123.08 875.171 121.544 878.072 118.472C881.059 115.4 882.552 111.005 882.552 105.288C882.552 99.5707 881.101 95.176 878.2 92.104C875.384 89.032 871.885 87.496 867.704 87.496C863.437 87.496 859.896 89.032 857.08 92.104C854.264 95.0907 852.856 99.4853 852.856 105.288C852.856 111.005 854.221 115.4 856.952 118.472C859.768 121.544 863.267 123.08 867.448 123.08ZM938.324 81.48C940.884 77.5547 944.084 74.4827 947.924 72.264C951.764 69.96 956.031 68.808 960.724 68.808V91.976H954.708C949.247 91.976 945.151 93.1707 942.42 95.56C939.689 97.864 938.324 101.96 938.324 107.848V141H916.436V69.576H938.324V81.48ZM1038.51 104.136C1038.51 106.184 1038.39 108.317 1038.13 110.536H988.594C988.935 114.973 990.343 118.387 992.818 120.776C995.378 123.08 998.493 124.232 1002.16 124.232C1007.62 124.232 1011.42 121.928 1013.55 117.32H1036.85C1035.66 122.013 1033.48 126.237 1030.32 129.992C1027.25 133.747 1023.37 136.691 1018.67 138.824C1013.98 140.957 1008.73 142.024 1002.93 142.024C995.933 142.024 989.703 140.531 984.242 137.544C978.781 134.557 974.514 130.291 971.442 124.744C968.37 119.197 966.834 112.712 966.834 105.288C966.834 97.864 968.327 91.3787 971.314 85.832C974.386 80.2853 978.653 76.0187 984.114 73.032C989.575 70.0453 995.847 68.552 1002.93 68.552C1009.84 68.552 1015.99 70.0027 1021.36 72.904C1026.74 75.8053 1030.92 79.944 1033.91 85.32C1036.98 90.696 1038.51 96.968 1038.51 104.136ZM1016.11 98.376C1016.11 94.6213 1014.83 91.6347 1012.27 89.416C1009.71 87.1973 1006.51 86.088 1002.67 86.088C999.005 86.088 995.89 87.1547 993.33 89.288C990.855 91.4213 989.319 94.4507 988.722 98.376H1016.11ZM1071.95 81.48C1074.51 77.5547 1077.71 74.4827 1081.55 72.264C1085.39 69.96 1089.66 68.808 1094.35 68.808V91.976H1088.33C1082.87 91.976 1078.78 93.1707 1076.05 95.56C1073.31 97.864 1071.95 101.96 1071.95 107.848V141H1050.06V69.576H1071.95V81.48Z" fill="#4F46E5"/>
<path opacity="0.977" fill-rule="evenodd" clip-rule="evenodd" d="M194.615 93.6252C194.615 96.7276 194.615 99.8303 194.615 102.933C190.648 130.971 175.818 150.951 150.126 162.872C150.002 167.34 149.878 171.807 149.754 176.275C149.195 177.826 148.141 178.881 146.589 179.439C115.068 179.688 83.5473 179.688 52.0261 179.439C50.4748 178.881 49.4201 177.826 48.8616 176.275C48.7995 171.802 48.6133 167.335 48.3032 162.872C22.7369 151.077 7.96919 131.221 4 103.305C4 100.078 4 96.8519 4 93.6252C4.67565 92.1439 5.79253 91.0891 7.35066 90.4607C10.2022 90.2746 13.0565 90.2128 15.9135 90.2746C14.485 82.1511 16.0983 74.7051 20.7533 67.9368C15.0381 59.1771 13.9833 49.8697 17.5888 40.0146C24.7853 26.2724 36.0163 20.9982 51.2816 24.1921C55.8463 25.4131 59.7554 27.7089 63.0089 31.0795C72.2068 15.2848 85.7956 9.39015 103.775 13.3955C114.326 17.022 121.586 24.0336 125.555 34.4302C131.336 31.5111 137.479 30.022 143.983 29.9627C142.438 25.9495 141.197 21.8542 140.26 17.6769C140.858 13.0539 143.464 11.2545 148.078 12.2786C149.047 12.6075 149.854 13.1659 150.498 13.9539C152.488 19.4267 154.473 24.887 156.455 30.3349C159.755 26.9108 163.168 23.6222 166.693 20.4691C170.482 18.9848 173.275 20.0396 175.07 23.6336C175.364 25.2812 175.24 26.8945 174.698 28.4735C171.545 31.9992 168.256 35.4119 164.832 38.7116C170.28 40.6933 175.74 42.6792 181.213 44.6683C182.979 46.63 183.538 48.9259 182.888 51.5558C181.792 53.8346 179.993 54.9515 177.49 54.9065C173.313 53.9694 169.217 52.7285 165.204 51.1835C164.894 53.6596 164.646 56.1414 164.459 58.6294C164.583 59.1257 164.708 59.6223 164.832 60.1186C176.59 66.6788 182.671 76.7308 183.074 90.2746C185.807 90.2128 188.537 90.2746 191.265 90.4607C192.823 91.0891 193.94 92.1439 194.615 93.6252ZM89.628 23.6336C100.385 22.4653 108.389 26.5606 113.641 35.9194C114.45 37.5984 114.947 39.3359 115.13 41.1315C110.934 44.5816 106.964 48.3045 103.217 52.3004C97.7396 40.0329 88.2461 34.0141 74.7362 34.2441C78.3076 28.7487 83.2714 25.2119 89.628 23.6336ZM40.1127 34.8025C46.3959 33.8973 51.6702 35.7588 55.9353 40.3869C57.6497 42.6985 59.0771 45.1806 60.2167 47.8328C62.1708 49.6686 64.4046 50.1027 66.918 49.1359C71.8792 45.8321 77.2153 45.0875 82.9267 46.9021C91.443 51.0912 94.7318 57.8547 92.7925 67.1922C91.6373 70.6185 89.6515 73.4728 86.8358 75.755C85.7476 77.9236 85.6236 80.1574 86.4635 82.4563C87.6548 85.151 89.0819 87.6949 90.7449 90.0884C88.8834 90.3367 87.0219 90.3367 85.1605 90.0884C79.8862 84.8141 74.6122 79.5402 69.3379 74.2658C69.2139 69.1777 69.0896 64.0899 68.9656 59.0017C67.511 55.9076 65.0911 54.7289 61.7058 55.4649C59.583 56.3454 58.28 57.8964 57.7967 60.1186C57.6106 63.7153 57.5488 67.3143 57.6106 70.9152C54.0097 70.8534 50.4108 70.9152 46.814 71.1013C42.2072 72.6858 40.9042 75.726 42.9049 80.2226C43.6264 81.1928 44.5571 81.8752 45.6971 82.2702C50.7853 82.3942 55.8731 82.5185 60.9612 82.6425C63.4433 85.1246 65.9251 87.6063 68.4072 90.0884C61.6437 90.1506 54.8805 90.2124 48.117 90.2746C41.2104 90.2719 34.385 90.024 27.6408 89.53C25.8254 82.1942 27.8109 76.1135 33.5975 71.2875C34.8385 69.0537 34.8385 66.8199 33.5975 64.5861C26.0592 57.4619 25.0664 49.5197 30.6191 40.7592C33.1907 37.7703 36.3552 35.7847 40.1127 34.8025ZM138.771 41.8761C147.383 41.5552 152.223 45.6504 153.291 54.1619C152.741 59.9682 150.693 65.1803 147.148 69.7983C144.443 73.5581 141.403 77.0327 138.026 80.2226C136.605 78.9873 135.24 77.6843 133.931 76.3135C128.816 73.7967 125.59 75.2859 124.252 80.781C124.3 81.6198 124.486 82.4262 124.81 83.2009C126.026 85.1008 127.453 86.8383 129.091 88.4131C128.627 89.1424 128.006 89.7008 127.23 90.0884C120.032 90.3367 112.834 90.3367 105.637 90.0884C102.689 87.3558 100.332 84.1912 98.5631 80.5949C101.396 76.9151 103.444 72.8198 104.706 68.3091C110.029 61.6208 115.985 55.5401 122.576 50.0666C124.016 51.631 125.567 53.058 127.23 54.348C133.178 55.8435 135.97 53.5476 135.607 47.4605C134.945 46.1795 134.139 45.0004 133.187 43.9237C134.975 42.9524 136.837 42.27 138.771 41.8761ZM159.992 70.9152C167.463 75.1813 171.31 81.6347 171.533 90.2746C162.597 90.3367 153.662 90.2746 144.728 90.0884C150.938 84.5341 156.027 78.1429 159.992 70.9152ZM15.5412 101.443C71.3859 101.319 127.23 101.443 183.074 101.816C182.649 105.356 181.905 108.83 180.84 112.24C126.485 112.736 72.1301 112.736 17.7749 112.24C16.6701 108.713 15.9255 105.114 15.5412 101.443ZM22.2425 124.153C73.5571 123.719 124.934 123.657 176.373 123.967C168.222 138.445 156.309 148.497 140.633 154.123C139.662 154.845 138.98 155.776 138.585 156.915C138.399 160.761 138.337 164.607 138.399 168.457C112.214 168.457 86.029 168.457 59.8444 168.457C59.9062 164.607 59.8444 160.761 59.6582 156.915C59.2632 155.776 58.5808 154.845 57.6106 154.123C41.9723 148.594 30.1831 138.603 22.2425 124.153Z" fill="#4F46E5"/>
</g>
<defs>
<filter id="filter0_d_114_4388" x="0" y="12" width="1098.35" height="175.626" filterUnits="userSpaceOnUse" color-interpolation-filters="sRGB">
<feFlood flood-opacity="0" result="BackgroundImageFix"/>
<feColorMatrix in="SourceAlpha" type="matrix" values="0 0 0 0 0 0 0 0 0 0 0 0 0 0 0 0 0 0 127 0" result="hardAlpha"/>
<feOffset dy="4"/>
<feGaussianBlur stdDeviation="2"/>
<feComposite in2="hardAlpha" operator="out"/>
<feColorMatrix type="matrix" values="0 0 0 0 0 0 0 0 0 0 0 0 0 0 0 0 0 0 0.35 0"/>
<feBlend mode="normal" in2="BackgroundImageFix" result="effect1_dropShadow_114_4388"/>
<feBlend mode="normal" in="SourceGraphic" in2="effect1_dropShadow_114_4388" result="shape"/>
</filter>
</defs>
</svg>
