<svg width="512" height="451" viewBox="0 0 512 451" fill="none" xmlns="http://www.w3.org/2000/svg">
<path opacity="0.977" fill-rule="evenodd" clip-rule="evenodd" d="M512 219.248C512 227.581 512 235.915 512 244.248C501.343 319.56 461.509 373.226 392.5 405.248C392.167 417.248 391.833 429.248 391.5 441.248C390 445.415 387.167 448.248 383 449.748C298.333 450.415 213.667 450.415 129 449.748C124.833 448.248 122 445.415 120.5 441.248C120.333 429.234 119.833 417.234 119 405.248C50.328 373.565 10.6614 320.232 0 245.248C0 236.581 0 227.915 0 219.248C1.81481 215.269 4.81481 212.436 9 210.748C16.6594 210.248 24.3261 210.082 32 210.248C28.1632 188.428 32.4966 168.428 45 150.248C29.6488 126.719 26.8155 101.719 36.5 75.2483C55.8302 38.3361 85.9969 24.1695 127 32.7483C139.261 36.028 149.761 42.1947 158.5 51.2483C183.206 8.82314 219.706 -7.01016 268 3.74834C296.341 13.4893 315.841 32.3226 326.5 60.2483C342.03 52.4076 358.53 48.4076 376 48.2483C371.85 37.4687 368.517 26.4687 366 15.2483C367.605 2.83074 374.605 -2.00256 387 0.748343C389.602 1.63174 391.769 3.13174 393.5 5.24834C398.843 19.9483 404.177 34.615 409.5 49.2483C418.363 40.051 427.53 31.2177 437 22.7483C447.178 18.7613 454.678 21.5946 459.5 31.2483C460.291 35.6738 459.957 40.0072 458.5 44.2483C450.031 53.7186 441.197 62.8853 432 71.7483C446.633 77.0713 461.3 82.4053 476 87.7483C480.745 93.0173 482.245 99.1843 480.5 106.248C477.556 112.369 472.723 115.369 466 115.248C454.78 112.731 443.78 109.398 433 105.248C432.168 111.899 431.501 118.565 431 125.248C431.333 126.581 431.667 127.915 432 129.248C463.583 146.869 479.916 173.869 481 210.248C488.341 210.082 495.674 210.248 503 210.748C507.185 212.436 510.185 215.269 512 219.248ZM230 31.2483C258.893 28.1102 280.393 39.1102 294.5 64.2483C296.674 68.7582 298.007 73.4253 298.5 78.2483C287.23 87.5153 276.564 97.5153 266.5 108.248C251.788 75.2973 226.288 59.1306 190 59.7483C199.593 44.9876 212.926 35.4876 230 31.2483ZM97 61.2483C113.877 58.817 128.044 63.817 139.5 76.2483C144.105 82.4573 147.939 89.1243 151 96.2483C156.249 101.179 162.249 102.345 169 99.7483C182.326 90.8743 196.659 88.8743 212 93.7483C234.875 105 243.709 123.167 238.5 148.248C235.397 157.451 230.063 165.118 222.5 171.248C219.577 177.073 219.244 183.073 221.5 189.248C224.7 196.486 228.533 203.319 233 209.748C228 210.415 223 210.415 218 209.748C203.833 195.581 189.667 181.415 175.5 167.248C175.167 153.581 174.833 139.915 174.5 126.248C170.593 117.937 164.093 114.771 155 116.748C149.298 119.113 145.798 123.279 144.5 129.248C144 138.909 143.834 148.576 144 158.248C134.328 158.082 124.661 158.248 115 158.748C102.626 163.004 99.1261 171.17 104.5 183.248C106.438 185.854 108.938 187.687 112 188.748C125.667 189.081 139.333 189.415 153 189.748C159.667 196.415 166.333 203.081 173 209.748C154.833 209.915 136.667 210.081 118.5 210.248C99.9485 210.241 81.6152 209.575 63.5 208.248C58.6237 188.544 63.957 172.211 79.5 159.248C82.8333 153.248 82.8333 147.248 79.5 141.248C59.2517 122.112 56.5851 100.779 71.5 77.2483C78.4072 69.2199 86.9072 63.8865 97 61.2483ZM362 80.2483C385.132 79.3863 398.132 90.3863 401 113.248C399.524 128.844 394.024 142.844 384.5 155.248C377.236 165.347 369.069 174.68 360 183.248C356.182 179.93 352.515 176.43 349 172.748C335.261 165.988 326.594 169.988 323 184.748C323.131 187.001 323.631 189.167 324.5 191.248C327.766 196.351 331.6 201.018 336 205.248C334.752 207.207 333.085 208.707 331 209.748C311.667 210.415 292.333 210.415 273 209.748C265.083 202.408 258.75 193.908 254 184.248C261.609 174.364 267.109 163.364 270.5 151.248C284.797 133.283 300.797 116.95 318.5 102.248C322.367 106.45 326.533 110.283 331 113.748C346.977 117.765 354.477 111.598 353.5 95.2483C351.724 91.8073 349.557 88.6403 347 85.7483C351.804 83.1393 356.804 81.3063 362 80.2483ZM419 158.248C439.067 169.707 449.401 187.041 450 210.248C425.998 210.415 401.998 210.248 378 209.748C394.682 194.829 408.349 177.662 419 158.248ZM31 240.248C181.001 239.915 331.001 240.248 481 241.248C479.859 250.756 477.859 260.089 475 269.248C329 270.581 183 270.581 37 269.248C34.0323 259.774 32.0323 250.107 31 240.248ZM49 301.248C186.833 300.082 324.833 299.915 463 300.748C441.107 339.635 409.107 366.635 367 381.748C364.394 383.686 362.561 386.186 361.5 389.248C361 399.576 360.834 409.909 361 420.248C290.667 420.248 220.333 420.248 150 420.248C150.166 409.909 150 399.576 149.5 389.248C148.439 386.186 146.606 383.686 144 381.748C101.995 366.895 70.3288 340.061 49 301.248Z" fill="#4F46E5"/>
</svg>
